PathFileType	4	(X/Y/Z)	G:\GRF\jawan data\CompiledGRF\03. Mohit Kumar\0231~ac~Walking 06_markers.trc
DataRate	CameraRate	NumFrames	NumMarkers	Units	OrigDataRate	OrigDataStartFrame	OrigNumFrames
100.000000	100.000000	8	18	mm	100.000000	610	977
Frame#	Time	c7			r should			l should			sacrum			r asis			r bar 1			r knee 1			r bar 2			r mall			r heel			r met			l asis			l bar 1			l knee 1			l bar 2			l mall			l heel			l met			
		X1	Y1	Z1	X2	Y2	Z2	X3	Y3	Z3	X4	Y4	Z4	X5	Y5	Z5	X6	Y6	Z6	X7	Y7	Z7	X8	Y8	Z8	X9	Y9	Z9	X10	Y10	Z10	X11	Y11	Z11	X12	Y12	Z12	X13	Y13	Z13	X14	Y14	Z14	X15	Y15	Z15	X16	Y16	Z16	X17	Y17	Z17	X18	Y18	Z18	

611	6.100000000000001	882.9580078125	1502.574462890625	262.6183776855469	948.1283569335938	1458.6689453125	420.5278930664063	920.0748901367188	1462.132690429688	95.37010955810547	777.2825317382813	1045.731079101563	257.2267150878906	964.56884765625	1003.587829589844	371.5935363769531	847.4634399414063	599.070556640625	429.6471557617188	842.1865234375	512.7930297851563	373.8164367675781	750.9710693359375	197.2743835449219	385.4423217773438	743.8187866210938	73.42223358154297	317.8984985351563	682.232666015625	41.53073120117188	273.9508056640625	891.8910522460938	35.32231903076172	308.5214538574219	944.9859008789063	1014.843688964844	125.9707794189453	1044.4208984375	628.66650390625	31.34451103210449	1102.302856445313	551.7686767578125	78.82268524169922	1025.97998046875	279.9332275390625	38.54279327392578	1007.822021484375	106.2562561035156	107.5332870483398	948.7742309570313	70.38565826416016	166.4377288818359	1136.845092773438	60.41677093505859	122.321418762207	
612	6.11	891.9505615234375	1501.369995117188	262.0466613769531	957.2350463867188	1457.403686523438	420.0377502441406	928.4834594726563	1460.761352539063	94.90363311767578	785.6333618164063	1044.737548828125	257.0125122070313	972.4822387695313	1002.262023925781	371.6717834472656	851.4420776367188	598.8296508789063	429.7651672363281	845.2410888671875	512.4486694335938	373.9147644042969	751.5921630859375	197.7380676269531	385.3661193847656	743.8619995117188	73.74824523925781	317.7437744140625	681.9097900390625	42.31185531616211	273.619873046875	891.9515991210938	35.36203002929688	308.5974426269531	953.2167358398438	1013.529541015625	126.0587539672852	1050.663208007813	626.1588134765625	32.019287109375	1109.808715820313	550.623291015625	79.8870849609375	1047.449829101563	275.7434692382813	38.42644500732422	1038.877685546875	100.9541015625	106.5567474365234	982.8853759765625	61.98372268676758	165.1696624755859	1169.82275390625	60.46538925170898	121.4856491088867	
613	6.12	901.2200927734375	1500.076293945313	261.5416870117188	966.3720092773438	1456.048461914063	419.4923400878906	937.5474243164063	1459.44384765625	94.21698760986328	793.7965698242188	1043.603515625	256.7558898925781	980.5237426757813	1000.908020019531	371.6957092285156	855.7561645507813	598.4761962890625	429.8746643066406	848.7957763671875	512.16845703125	373.9890441894531	752.4185180664063	198.1407775878906	385.2870483398438	743.93017578125	73.98488616943359	317.6102294921875	681.8792114257813	42.95344161987305	273.3050231933594	891.9534301757813	35.36767196655273	308.697509765625	961.6686401367188	1012.230041503906	126.0923461914063	1057.286499023438	623.432373046875	32.75920486450195	1117.293823242188	549.103759765625	81.19179534912109	1068.627685546875	271.951171875	38.2952766418457	1069.2216796875	96.57468414306641	105.6087188720703	1013.125793457031	56.08486938476563	164.2698822021484	1206.265014648438	64.17100524902344	120.7401351928711	
614	6.13	910.1297607421875	1498.752563476563	260.9039916992188	975.668212890625	1454.724731445313	418.9027404785156	946.4534301757813	1458.001342773438	93.67866516113281	801.9729614257813	1042.42529296875	256.4140930175781	988.605224609375	999.5142211914063	371.6698303222656	860.2013549804688	598.018310546875	429.8368530273438	852.6754760742188	511.8059997558594	374.0130004882813	753.5606689453125	198.4944610595703	385.2068786621094	744.1658325195313	74.34164428710938	317.431884765625	682.2514038085938	43.36927032470703	273.0671691894531	891.8901977539063	35.24833679199219	308.7702941894531	970.0711059570313	1010.77294921875	125.920654296875	1064.077880859375	620.5643310546875	33.53702926635742	1124.015747070313	546.996826171875	82.74617767333984	1089.144897460938	268.713623046875	38.2466926574707	1098.601318359375	93.07401275634766	104.8252944946289	1043.53955078125	50.85951232910156	163.5135498046875	1238.4228515625	66.95774841308594	119.8883056640625	
615	6.140000000000001	919.2938232421875	1497.377807617188	260.2410583496094	984.8389892578125	1453.366577148438	418.3129577636719	955.662109375	1456.612670898438	92.93888854980469	810.4177856445313	1041.189208984375	256.0189208984375	996.6001586914063	998.0541381835938	371.5394287109375	864.9990844726563	597.593505859375	429.7533874511719	856.6749267578125	511.3387756347656	374.0118713378906	754.7984619140625	198.8992767333984	385.1330261230469	744.5054321289063	74.85244750976563	317.2746276855469	682.5562744140625	43.83158493041992	272.8990783691406	891.8948364257813	35.24213790893555	308.8351135253906	978.7188110351563	1009.26220703125	125.6685562133789	1071.130859375	617.63623046875	34.34685134887695	1129.784057617188	544.3578491210938	84.53661346435547	1108.737548828125	266.0111389160156	38.24996948242188	1126.72265625	90.47496032714844	104.1407470703125	1072.83154296875	46.50868606567383	162.6528167724609	1268.320556640625	70.19190979003906	119.1317138671875	
616	6.15	928.878173828125	1495.9443359375	259.5554504394531	993.9951782226563	1452.01416015625	417.5783386230469	964.9027709960938	1455.039794921875	92.16914367675781	818.8209228515625	1039.935546875	255.528564453125	1004.684936523438	996.560546875	371.3550109863281	869.9801025390625	597.0621948242188	429.6303100585938	861.0774536132813	510.7977294921875	373.9859313964844	756.2054443359375	199.3728942871094	385.1016235351563	744.8176879882813	75.27498626708984	317.2581176757813	683.0374755859375	44.2368049621582	272.7691040039063	891.806884765625	35.16825866699219	308.8893127441406	987.2323608398438	1007.625122070313	125.3965377807617	1078.053588867188	614.4741821289063	35.23215103149414	1136.2890625	542.0494384765625	86.35614776611328	1127.0322265625	263.7716674804688	38.30085754394531	1153.849853515625	88.83995819091797	103.4888916015625	1102.60791015625	42.09112167358398	161.6544952392578	1296.426513671875	74.1884765625	118.6409683227539	
617	6.16	937.9443969726563	1494.489379882813	258.7452392578125	1003.341918945313	1450.586547851563	416.8008117675781	973.992919921875	1453.250854492188	91.46920776367188	827.2076416015625	1038.736206054688	254.9158935546875	1012.826782226563	995.112548828125	371.10888671875	875.2548828125	596.5167236328125	429.533203125	865.9778442382813	510.3306884765625	373.8733520507813	757.9205932617188	199.8683013916016	385.1853637695313	745.2284545898438	75.7921142578125	317.3490295410156	683.3204956054688	44.72994613647461	272.7369384765625	891.8359985351563	35.09629440307617	308.8948059082031	995.5999755859375	1005.910400390625	125.0609588623047	1084.781616210938	611.156494140625	36.24700164794922	1142.985717773438	539.87548828125	88.19610595703125	1144.167602539063	262.0859680175781	38.51778793334961	1179.652709960938	88.12934875488281	102.798698425293	1131.645629882813	38.41669845581055	160.5090637207031	1322.953491210938	78.94594573974609	118.4301223754883	
618	6.17	946.906005859375	1493.05810546875	257.8741760253906	1012.86328125	1449.059936523438	416.0047302246094	983.5262451171875	1451.637939453125	90.51486968994141	835.5107421875	1037.578491210938	254.2250518798828	1021.088500976563	993.67431640625	370.8134155273438	880.794677734375	595.9222412109375	429.3512878417969	871.0694580078125	509.7523803710938	373.7499389648438	759.5648193359375	200.4234771728516	385.2108154296875	745.609130859375	76.28701019287109	317.495361328125	683.8369140625	45.29808807373047	272.8688659667969	891.9658813476563	35.1119384765625	308.9229736328125	1004.304992675781	1004.290710449219	124.6722259521484	1091.410034179688	607.9765625	37.38053894042969	1149.487060546875	537.5963134765625	89.92125701904297	1160.321044921875	260.9066467285156	38.86235809326172	1203.830810546875	88.12464141845703	102.3007659912109	1155.78955078125	36.82590866088867	159.2888946533203	1347.486206054688	84.07608032226563	118.455207824707	
